<?xml version="1.0" standalone="no"?>
<!DOCTYPE svg PUBLIC "-//W3C//DTD SVG 20010904//EN"
 "http://www.w3.org/TR/2001/REC-SVG-20010904/DTD/svg10.dtd">
<svg version="1.0" xmlns="http://www.w3.org/2000/svg"
 width="200.000000pt" height="200.000000pt" viewBox="0 0 200.000000 200.000000"
 preserveAspectRatio="xMidYMid meet">
<metadata>
Created by potrace 1.14, written by Peter Selinger 2001-2017
</metadata>
<g transform="translate(0.000000,200.000000) scale(0.100000,-0.100000)"
fill="#000000" stroke="none">
<path d="M999 1855 c-3 -2 -46 -9 -97 -14 -89 -10 -121 -21 -170 -65 -17 -15
-21 -27 -17 -46 3 -14 -1 -41 -9 -60 -19 -47 -27 -126 -18 -175 l8 -40 12 60
c19 95 26 101 134 113 117 14 302 9 323 -8 21 -17 47 -110 35 -125 -14 -17 -1
-55 38 -109 46 -63 57 -144 30 -225 -10 -29 -15 -57 -12 -62 3 -5 -2 -12 -10
-15 -9 -3 -16 -12 -16 -20 0 -8 -4 -14 -8 -14 -5 0 -14 -11 -20 -24 -9 -21
-60 -44 -84 -38 -5 1 -8 -3 -8 -8 0 -22 -31 -8 -41 17 -16 42 -39 63 -70 63
-37 0 -41 9 -24 56 13 39 11 60 -4 35 -7 -10 -13 -11 -31 -1 -14 7 -35 9 -59
4 -20 -4 -42 -6 -50 -5 -28 5 -42 -8 -31 -28 9 -17 4 -26 -26 -57 l-37 -36 6
-71 c5 -60 12 -79 42 -123 25 -37 47 -57 71 -64 19 -6 34 -13 34 -15 0 -1 -9
-23 -20 -48 -28 -63 -16 -147 20 -147 10 0 21 -10 24 -23 l7 -22 11 23 c11 22
5 60 -29 192 -6 22 -5 24 10 11 9 -7 17 -19 17 -26 0 -7 11 -20 23 -28 15 -9
23 -25 23 -39 -1 -33 34 -35 72 -3 20 17 32 21 34 13 11 -32 248 240 248 284
0 26 -14 22 -30 -7 -7 -14 -17 -25 -22 -25 -5 0 -4 8 1 19 6 10 8 21 5 23 -2
3 0 17 5 32 6 14 12 52 15 83 2 32 7 66 11 76 4 10 3 17 -4 17 -6 0 -11 10
-11 23 0 18 2 19 11 7 8 -11 12 -12 16 -2 2 6 11 12 19 12 18 0 18 14 -1 30
-12 10 -13 16 -4 26 16 19 39 18 39 -2 0 -26 25 -9 28 19 5 45 -26 47 -63 4
-18 -20 -35 -34 -38 -31 -9 9 20 61 39 72 36 20 36 261 1 297 -8 8 -12 25 -10
40 5 21 -5 35 -52 81 -62 59 -106 85 -170 103 -56 15 -110 23 -116 16z m-79
-885 c-8 -15 -21 -20 -55 -20 -53 0 -61 -10 -40 -51 17 -31 17 -31 80 -27 43
4 73 12 94 27 31 22 31 22 31 2 0 -12 -4 -21 -10 -21 -5 0 -10 -8 -10 -17 0
-15 -10 -18 -64 -18 -36 0 -68 3 -72 7 -3 4 -15 3 -26 -3 -27 -15 -55 -2 -72
33 -13 25 -14 35 -3 56 6 14 15 23 18 21 3 -2 13 2 22 10 13 10 17 10 17 1 0
-9 4 -9 13 -2 6 5 23 12 37 15 50 9 51 8 40 -13z m94 -25 c-4 -8 -8 -15 -10
-15 -2 0 -4 7 -4 15 0 8 4 15 10 15 5 0 7 -7 4 -15z"/>
<path d="M990 1404 c-60 -19 -88 -40 -72 -56 7 -7 12 -20 12 -30 0 -23 81 -59
129 -56 l36 1 -35 4 c-19 3 -39 9 -45 15 -7 7 14 8 65 4 41 -3 81 -2 88 2 8 6
12 24 10 48 -3 33 -8 41 -38 55 -51 24 -99 28 -150 13z m110 -44 c13 -9 13
-10 0 -9 -8 1 -26 5 -40 9 l-25 8 25 1 c14 0 32 -4 40 -9z m-70 -50 c0 -5 -4
-10 -10 -10 -5 0 -10 5 -10 10 0 6 5 10 10 10 6 0 10 -4 10 -10z"/>
<path d="M698 1394 c-5 -4 -8 -15 -8 -24 0 -13 6 -16 25 -12 28 5 33 -5 11
-22 -8 -6 -17 -21 -21 -33 -5 -20 -2 -23 22 -25 15 0 34 -1 41 -1 7 1 11 -5 8
-13 -8 -22 7 -16 42 15 39 36 44 84 11 101 -26 15 -122 25 -131 14z m62 -105
c0 -6 -4 -7 -10 -4 -5 3 -10 11 -10 16 0 6 5 7 10 4 6 -3 10 -11 10 -16z"/>
<path d="M1370 914 c0 -3 4 -14 10 -24 8 -15 -6 -41 -78 -142 -49 -68 -110
-158 -136 -200 -26 -43 -52 -78 -57 -78 -5 0 -17 17 -28 38 -21 41 -51 72 -51
53 0 -6 -13 -17 -30 -26 -33 -17 -40 -35 -13 -35 15 0 14 -2 -3 -15 -18 -14
-17 -14 9 -5 27 9 28 9 21 -12 -11 -37 -56 -86 -83 -92 -14 -3 -37 -15 -51
-26 -22 -18 -22 -20 -3 -11 28 14 70 14 75 0 2 -6 30 19 62 55 32 36 61 66 65
66 21 0 0 -49 -79 -180 -48 -80 -104 -175 -124 -213 l-38 -67 581 0 581 0 0
214 0 214 -50 37 c-27 20 -50 41 -50 46 0 14 -138 112 -230 163 -132 73 -171
105 -214 179 -30 53 -44 67 -62 67 -13 0 -24 -3 -24 -6z"/>
<path d="M1218 711 c-9 -10 -19 -28 -23 -40 -3 -12 -11 -19 -16 -16 -5 4 -9 1
-9 -4 0 -6 -5 -11 -11 -11 -15 0 -71 -58 -61 -64 10 -6 91 68 126 117 28 38
23 52 -6 18z"/>
<path d="M709 587 c-45 -30 -94 -130 -113 -232 -8 -44 -17 -142 -20 -218 l-5
-137 74 0 c71 0 75 1 81 24 3 14 4 29 1 33 -10 17 24 170 62 283 l40 115 -30
37 c-21 27 -29 48 -29 77 0 48 -12 51 -61 18z"/>
<path d="M920 473 c0 -4 5 -15 10 -23 8 -13 10 -13 10 2 0 9 -4 20 -10 23 -5
3 -10 3 -10 -2z"/>
<path d="M840 420 c12 -22 25 -26 35 -11 3 6 -3 15 -14 20 -28 16 -33 14 -21
-9z"/>
</g>
</svg>
